<?xml version="1.0" encoding="UTF-8"?>
<!DOCTYPE svg PUBLIC "-//W3C//DTD SVG 1.1//EN" "http://www.w3.org/Graphics/SVG/1.1/DTD/svg11.dtd">
<!-- Creator: CorelDRAW -->
<svg xmlns="http://www.w3.org/2000/svg" xml:space="preserve" width="4in" height="4in" version="1.1" style="shape-rendering:geometricPrecision; text-rendering:geometricPrecision; image-rendering:optimizeQuality; fill-rule:evenodd; clip-rule:evenodd"
viewBox="0 0 4000 4000"
 xmlns:xlink="http://www.w3.org/1999/xlink"
 xmlns:xodm="http://www.corel.com/coreldraw/odm/2003">
 <defs>
  <style type="text/css">
   <![CDATA[
    .fil0 {fill:none;fill-rule:nonzero}
   ]]>
  </style>
   <clipPath id="id0">
    <path d="M3087.8 680.94l0 205.55 -32.21 0 0 -205.55 -74.18 0 0 -29.51 184.46 0 0 29.51 -78.08 0zm282.06 205.55l-27.33 -150.6 -51.73 154.67 -7.81 0 -52.7 -154.67 -27.33 150.6 -31.23 0 43.92 -235.06 14.64 0 56.61 171.97 51.73 -171.97 14.64 0 46.85 235.06 -30.26 0z"/>
   </clipPath>
   <clipPath id="id1">
    <path d="M1311.48 2763.92c37.09,0 68.32,10.18 94.67,29.51 26.35,19.33 43.92,45.79 52.7,79.37l-82.96 0c-5.86,-13.23 -14.64,-22.39 -26.35,-29.51 -11.71,-7.12 -24.4,-10.17 -39.04,-10.17 -23.43,0 -41.97,8.14 -56.61,24.42 -14.64,16.28 -21.47,37.65 -21.47,65.12 0,27.48 6.83,48.85 21.47,65.13 14.64,16.28 33.18,24.42 56.61,24.42 14.64,0 27.33,-3.05 39.04,-10.17 11.71,-7.13 20.5,-17.3 26.35,-29.51l82.96 0c-8.78,33.58 -26.35,60.04 -52.7,79.37 -26.35,19.33 -57.59,28.49 -94.67,28.49 -30.26,0 -56.61,-6.1 -81.01,-19.33 -23.43,-14.25 -41.97,-32.56 -55.63,-56.98 -12.69,-23.41 -19.52,-50.88 -19.52,-81.41 0,-30.52 6.83,-58 19.52,-82.42 13.67,-24.42 32.21,-42.74 55.63,-55.97 24.4,-13.23 50.75,-20.35 81.01,-20.35zm353.31 314.43l-65.39 -117.02 -17.57 0 0 117.02 -76.13 0 0 -311.37 126.88 0c25.38,0 45.87,5.09 63.44,13.23 16.59,8.14 30.26,20.35 38.07,35.61 8.78,14.24 13.66,31.54 13.66,49.86 0,20.35 -5.85,38.67 -17.57,54.95 -11.71,16.28 -29.28,27.47 -51.73,34.59l71.25 123.13 -84.91 0zm-82.96 -170.95l46.85 0c13.66,0 24.4,-3.06 31.23,-10.18 6.83,-7.12 10.74,-16.28 10.74,-28.49 0,-12.21 -3.91,-21.37 -10.74,-28.49 -6.83,-6.11 -17.57,-10.18 -31.23,-10.18l-46.85 0 0 77.34zm288.9 -79.37l0 63.09 101.5 0 0 58 -101.5 0 0 69.19 115.17 0 0 60.04 -191.3 0 0 -311.37 191.3 0 0 61.05 -115.17 0zm155.19 157.72l81.01 0c0.98,11.19 4.88,20.35 11.71,26.46 6.83,6.11 15.61,9.16 26.35,9.16 11.71,0 20.5,-3.05 26.35,-8.14 6.83,-5.09 9.76,-12.21 9.76,-21.37 0,-8.14 -1.95,-14.24 -7.81,-19.33 -4.88,-5.09 -10.73,-9.16 -18.54,-12.21 -7.81,-3.06 -18.54,-7.13 -32.21,-11.19 -20.5,-6.11 -37.09,-12.21 -49.78,-18.32 -12.69,-6.11 -23.42,-15.26 -32.21,-27.47 -9.76,-12.21 -13.66,-28.49 -13.66,-47.83 0,-28.49 9.76,-51.9 31.23,-68.18 20.5,-16.28 48.8,-24.42 81.98,-24.42 34.16,0 62.46,8.14 82.96,24.42 21.47,16.28 32.2,39.69 34.16,69.19l-81.98 0c-0.98,-10.17 -4.88,-18.31 -11.71,-24.42 -6.83,-5.09 -15.61,-8.14 -26.35,-8.14 -8.78,0 -16.59,2.03 -21.47,7.12 -5.85,5.09 -8.78,12.21 -8.78,21.37 0,9.16 4.88,17.3 14.64,23.41 8.78,5.09 23.42,11.19 43.92,18.31 20.5,6.11 36.11,13.23 48.8,19.33 12.69,6.11 23.43,15.26 33.19,26.46 8.78,12.21 13.67,27.48 13.67,45.79 0,18.32 -4.88,33.58 -13.67,48.84 -8.78,14.25 -22.45,25.44 -39.04,34.6 -17.57,8.14 -38.06,12.21 -61.49,12.21 -22.45,0 -42.94,-3.06 -60.51,-11.19 -18.54,-7.13 -33.19,-18.32 -43.92,-32.56 -10.74,-14.25 -15.61,-31.54 -16.59,-51.9zm425.54 -221.83c36.11,0 68.32,10.18 94.67,29.51 26.35,19.33 43.92,45.79 52.7,79.37l-83.94 0c-5.85,-13.23 -14.64,-22.39 -26.35,-29.51 -10.74,-7.12 -24.4,-10.17 -38.07,-10.17 -23.42,0 -42.94,8.14 -57.58,24.42 -13.67,16.28 -21.47,37.65 -21.47,65.12 0,27.48 7.81,48.85 21.47,65.13 14.64,16.28 34.16,24.42 57.58,24.42 13.67,0 27.33,-3.05 38.07,-10.17 11.71,-7.13 20.5,-17.3 26.35,-29.51l83.94 0c-8.78,33.58 -26.35,60.04 -52.7,79.37 -26.35,19.33 -58.56,28.49 -94.67,28.49 -30.26,0 -57.58,-6.1 -81.01,-19.33 -24.4,-14.25 -42.94,-32.56 -55.63,-56.98 -13.67,-23.41 -20.5,-50.88 -20.5,-81.41 0,-30.52 6.83,-58 20.5,-82.42 12.69,-24.42 31.23,-42.74 55.63,-55.97 23.43,-13.23 50.75,-20.35 81.01,-20.35zm269.38 64.11l0 63.09 101.5 0 0 58 -101.5 0 0 69.19 115.17 0 0 60.04 -190.32 0 0 -311.37 190.32 0 0 61.05 -115.17 0zm442.13 250.32l-75.15 0 -126.88 -191.3 0 191.3 -76.13 0 0 -311.37 76.13 0 126.88 193.34 0 -193.34 75.15 0 0 311.37zm279.13 -311.37l0 61.05 -81.98 0 0 250.32 -76.13 0 0 -250.32 -81.98 0 0 -61.05 240.09 0zm-1993.97 550.5c0,30.53 -6.83,56.98 -20.5,81.41 -13.67,23.4 -32.21,41.72 -57.59,54.95 -24.4,12.21 -52.7,19.33 -84.91,19.33l-117.12 0 0 -311.38 117.12 0c32.21,0 60.52,6.11 85.89,19.33 24.4,13.23 42.94,31.55 56.61,54.95 13.66,23.41 20.5,50.88 20.5,81.41zm-77.11 0c0,-28.49 -8.78,-50.88 -24.4,-67.16 -15.61,-15.26 -38.06,-23.41 -67.34,-23.41l-35.13 0 0 180.11 35.13 0c29.28,0 51.73,-7.12 67.34,-23.4 15.62,-15.26 24.4,-37.65 24.4,-66.15zm195.2 -94.63l0 63.09 101.5 0 0 58 -101.5 0 0 68.18 115.17 0 0 61.05 -191.3 0 0 -311.38 191.3 0 0 61.06 -115.17 0zm240.09 0l0 63.09 101.5 0 0 58 -101.5 0 0 68.18 114.19 0 0 61.05 -190.32 0 0 -311.38 190.32 0 0 61.06 -114.19 0zm442.13 250.32l-76.13 0 -126.88 -192.32 0 192.32 -75.15 0 0 -311.38 75.15 0 126.88 193.34 0 -193.34 76.13 0 0 311.38zm-1037.49 180.11l-24.4 -43.76 -6.83 0 0 43.76 -29.28 0 0 -117.02 47.82 0c9.76,0 17.57,2.04 24.4,5.09 5.85,3.06 10.74,8.14 14.64,13.23 2.93,6.11 3.91,12.21 3.91,19.33 0,7.13 -1.95,14.25 -5.86,20.35 -4.88,6.1 -10.74,10.17 -19.52,13.23l27.33 45.79 -32.21 0zm-31.23 -64.11l17.57 0c4.88,0 8.78,-1.02 11.71,-4.07 1.95,-2.04 3.91,-6.1 3.91,-10.17 0,-5.09 -1.95,-8.14 -3.91,-11.19 -2.93,-2.04 -6.83,-3.06 -11.71,-3.06l-17.57 0 0 28.49zm108.33 -29.51l0 23.4 38.06 0 0 22.39 -38.06 0 0 25.44 42.94 0 0 22.39 -71.25 0 0 -117.02 71.25 0 0 23.41 -42.94 0zm58.56 59.02l30.26 0c0,4.07 1.95,8.14 3.9,10.17 2.93,2.04 5.86,3.06 10.74,3.06 3.91,0 6.83,-1.02 9.76,-3.06 1.95,-2.04 3.91,-4.07 3.91,-8.14 0,-3.06 -0.98,-5.09 -2.93,-7.13 -1.95,-2.04 -4.88,-3.05 -7.81,-4.07 -2.93,-2.03 -6.83,-3.05 -11.71,-4.07 -7.81,-3.06 -13.67,-5.09 -18.54,-7.13 -4.88,-3.05 -8.78,-6.1 -12.69,-10.17 -2.93,-5.09 -4.88,-11.19 -4.88,-18.32 0,-11.19 3.91,-19.33 11.71,-25.44 7.81,-6.11 18.55,-9.16 31.23,-9.16 12.69,0 23.43,3.05 31.23,9.16 7.81,6.11 11.71,14.24 12.69,25.44l-31.23 0c0,-4.07 -1.95,-6.1 -3.91,-9.16 -2.93,-2.04 -5.85,-3.05 -9.76,-3.05 -3.9,0 -6.83,1.02 -8.78,3.05 -1.95,2.04 -2.93,4.07 -2.93,8.14 0,3.05 1.95,6.11 4.88,8.14 3.91,2.04 9.76,5.09 16.59,7.12 7.81,3.05 13.67,5.09 18.55,7.12 4.88,3.06 8.78,6.11 12.69,10.18 2.93,5.09 4.88,10.17 4.88,17.3 0,7.12 -1.95,13.23 -4.88,18.31 -2.93,5.09 -7.81,10.18 -14.64,13.23 -6.83,3.05 -14.64,5.09 -23.43,5.09 -7.81,0 -15.61,-2.04 -22.45,-5.09 -6.83,-2.04 -12.69,-6.11 -16.59,-12.21 -3.91,-5.09 -5.86,-11.19 -5.86,-19.33zm100.53 -23.41c0,-12.21 2.93,-22.39 7.81,-31.54 5.85,-9.16 12.69,-16.28 22.45,-21.37 8.78,-5.09 19.52,-7.12 30.26,-7.12 10.74,0 20.5,2.04 30.26,7.12 8.78,5.09 16.59,12.21 21.47,21.37 4.88,9.16 7.81,19.33 7.81,31.54 0,11.19 -2.93,21.37 -7.81,30.53 -5.86,9.16 -12.69,16.28 -21.47,21.37 -9.76,5.09 -19.52,8.14 -30.26,8.14 -10.74,0 -21.47,-3.05 -30.26,-8.14 -9.76,-5.09 -16.59,-12.21 -22.45,-21.37 -4.88,-9.16 -7.81,-19.33 -7.81,-30.53zm90.77 0c0,-11.19 -1.95,-19.33 -7.81,-25.44 -5.85,-6.1 -13.66,-9.16 -22.44,-9.16 -9.76,0 -17.57,3.06 -22.45,9.16 -5.86,6.11 -8.78,14.25 -8.78,25.44 0,10.18 2.93,18.31 8.78,24.42 4.88,6.11 12.69,9.16 22.45,9.16 8.78,0 16.59,-3.05 22.44,-9.16 5.86,-6.11 7.81,-14.24 7.81,-24.42zm73.2 -59.02l0 70.21c0,7.12 1.95,12.21 4.88,16.28 3.91,4.07 8.78,6.1 15.62,6.1 6.83,0 11.71,-2.04 15.61,-6.1 2.93,-4.07 4.88,-9.16 4.88,-16.28l0 -70.21 28.3 0 0 70.21c0,10.18 -1.95,19.33 -6.83,26.46 -3.9,7.12 -9.76,13.23 -17.57,16.28 -7.81,4.07 -15.61,6.1 -25.37,6.1 -8.78,0 -17.57,-2.04 -24.4,-6.1 -6.83,-3.06 -12.69,-9.16 -17.57,-16.28 -3.91,-7.12 -5.86,-16.28 -5.86,-26.46l0 -70.21 28.31 0zm149.33 117.02l-24.4 -43.76 -6.83 0 0 43.76 -28.3 0 0 -117.02 47.82 0c8.78,0 16.59,2.04 23.43,5.09 6.83,3.06 11.71,8.14 14.64,13.23 2.93,6.11 4.88,12.21 4.88,19.33 0,7.13 -1.95,14.25 -6.83,20.35 -3.91,6.1 -10.74,10.17 -19.52,13.23l27.33 45.79 -32.21 0zm-31.23 -64.11l17.57 0c4.88,0 8.78,-1.02 11.71,-4.07 2.93,-2.04 3.91,-6.1 3.91,-10.17 0,-5.09 -0.98,-8.14 -3.91,-11.19 -2.93,-2.04 -6.83,-3.06 -11.71,-3.06l-17.57 0 0 28.49zm133.71 -53.93c14.64,0 26.35,4.07 36.11,11.19 9.76,7.12 16.59,17.3 19.52,29.51l-31.23 0c-1.95,-4.07 -5.85,-8.14 -9.76,-11.19 -3.9,-2.04 -8.78,-3.05 -14.64,-3.05 -8.78,0 -15.62,3.05 -21.47,9.16 -4.88,6.11 -7.81,14.24 -7.81,24.42 0,10.18 2.93,18.31 7.81,24.42 5.85,6.11 12.69,9.16 21.47,9.16 5.85,0 10.74,-1.02 14.64,-4.07 3.91,-2.03 7.81,-6.1 9.76,-11.19l31.23 0c-2.93,13.23 -9.76,22.39 -19.52,30.53 -9.76,7.13 -21.47,10.18 -36.11,10.18 -10.74,0 -21.47,-2.04 -30.26,-7.12 -8.78,-5.09 -15.62,-12.21 -20.5,-21.37 -4.88,-9.16 -7.81,-19.33 -7.81,-30.53 0,-12.21 2.93,-22.39 7.81,-31.54 4.88,-9.16 11.71,-15.26 20.5,-20.35 8.78,-5.09 19.52,-8.14 30.26,-8.14zm101.5 24.42l0 23.4 38.06 0 0 22.39 -38.06 0 0 25.44 43.92 0 0 22.39 -72.22 0 0 -117.02 72.22 0 0 23.41 -43.92 0zm58.56 59.02l30.26 0c0.98,4.07 1.95,8.14 4.88,10.17 1.95,2.04 5.85,3.06 9.76,3.06 3.9,0 7.81,-1.02 9.76,-3.06 2.93,-2.04 3.9,-4.07 3.9,-8.14 0,-3.06 -0.97,-5.09 -2.93,-7.13 -1.95,-2.04 -3.91,-3.05 -6.83,-4.07 -2.93,-2.03 -6.83,-3.05 -12.69,-4.07 -6.83,-3.06 -13.67,-5.09 -18.55,-7.13 -4.88,-3.05 -8.78,-6.1 -11.71,-10.17 -3.91,-5.09 -5.86,-11.19 -5.86,-18.32 0,-11.19 3.91,-19.33 12.69,-25.44 7.81,-6.11 17.57,-9.16 30.26,-9.16 12.69,0 23.43,3.05 31.23,9.16 7.81,6.11 12.69,14.24 12.69,25.44l-30.26 0c-0.98,-4.07 -1.95,-6.1 -4.88,-9.16 -1.95,-2.04 -5.85,-3.05 -9.76,-3.05 -2.93,0 -5.85,1.02 -7.81,3.05 -2.93,2.04 -3.91,4.07 -3.91,8.14 0,3.05 1.95,6.11 5.86,8.14 2.93,2.04 8.78,5.09 16.59,7.12 7.81,3.05 13.67,5.09 18.54,7.12 4.88,3.06 8.78,6.11 11.71,10.18 3.91,5.09 5.86,10.17 5.86,17.3 0,7.12 -1.95,13.23 -5.86,18.31 -2.93,5.09 -7.81,10.18 -14.64,13.23 -5.86,3.05 -13.67,5.09 -22.45,5.09 -8.78,0 -16.59,-2.04 -23.43,-5.09 -6.83,-2.04 -11.71,-6.11 -15.61,-12.21 -3.91,-5.09 -6.83,-11.19 -6.83,-19.33z"/>
   </clipPath>
   <clipPath id="id2">
    <path d="M2204.52 381.78c0,0 -430.41,-65.13 -829.6,26.46 -400.16,91.58 -616.83,489.45 -643.19,710.26 -27.33,220.81 -90.77,638.02 459.7,1000.28 0,0 211.79,123.13 633.43,123.13l80.03 -367.34c0,0 -279.14,9.16 -369.91,-13.23 -91.74,-22.39 -480.19,-185.2 -447.01,-586.12 33.19,-401.94 374.78,-531.17 583.65,-537.28 208.86,-5.09 440.18,4.07 440.18,4.07l92.72 -360.22z"/>
   </clipPath>
   <clipPath id="id3">
    <path d="M1573.04 2552.26c0,0 429.44,65.12 829.6,-26.46 400.16,-91.58 616.83,-489.45 643.19,-710.27 26.35,-220.81 90.77,-638.02 -459.7,-1000.28 0,0 -211.79,-123.13 -633.43,-123.13l-80.03 366.33c0,0 278.16,-9.16 369.91,14.24 91.74,22.39 480.19,185.2 447.01,586.13 -34.16,400.92 -374.78,531.17 -583.65,536.26 -208.86,6.11 -440.18,17.3 -440.18,17.3l-92.72 339.87z"/>
   </clipPath>
 </defs>
 <g id="Layer_x0020_1">
  <metadata id="CorelCorpID_0Corel-Layer"/>
  <polygon class="fil0" points="3087.82,680.76 3087.82,886.96 3055.77,886.96 3055.77,680.76 2980.95,680.76 2980.95,651.79 3166,651.79 3166,680.76 "/>
  <g style="clip-path:url(#id0)">
   <image x="284.72" y="201.66" width="3443.33" height="3590" xlink:href="CRESCENT DEEN copy_Images\CRESCENT DEEN copy_ImgID1.png"/>
  </g>
  <polygon class="fil0" points="3369.97,886.96 3342.11,735.93 3290.68,890.13 3282.67,890.13 3229.93,735.93 3202.63,886.96 3172.07,886.96 3216.04,651.79 3230.67,651.79 3286.67,823.41 3338.38,651.79 3352.83,651.79 3400.53,886.96 "/>
  <path class="fil0" d="M1311.66 2763.79c36.94,0 68.61,9.8 94.88,29.28 26.26,19.48 43.86,46.12 52.65,79.8l-83.31 0c-6.16,-12.94 -14.96,-22.87 -26.39,-29.66 -11.31,-6.78 -24.25,-10.18 -38.7,-10.18 -23.37,0 -42.35,8.17 -56.81,24.38 -14.45,16.21 -21.74,37.95 -21.74,65.1 0,27.27 7.29,49.01 21.74,65.22 14.45,16.21 33.43,24.38 56.81,24.38 14.45,0 27.4,-3.39 38.7,-10.18 11.44,-6.79 20.24,-16.71 26.39,-29.78l83.31 0c-8.8,33.68 -26.39,60.2 -52.65,79.67 -26.26,19.35 -57.93,29.03 -94.88,29.03 -30.16,0 -57.19,-6.66 -80.94,-20.11 -23.75,-13.44 -42.35,-32.17 -55.67,-56.17 -13.32,-24 -19.98,-51.27 -19.98,-82.06 0,-30.79 6.66,-58.19 19.98,-82.19 13.32,-24.13 31.92,-42.85 55.67,-56.3 23.75,-13.44 50.78,-20.23 80.94,-20.23z"/>
  <path class="fil0" d="M1664.55 3078.59l-64.72 -117.5 -18.22 0 0 117.5 -75.78 0 0 -311.28 127.18 0c24.5,0 45.49,4.27 62.71,12.94 17.34,8.54 30.29,20.23 38.83,35.19 8.55,14.96 12.82,31.54 12.82,49.89 0,20.74 -5.78,39.21 -17.47,55.42 -11.69,16.21 -28.9,27.77 -51.65,34.56l71.88 123.28 -85.58 0zm-82.94 -171.16l47 0c13.95,0 24.38,-3.39 31.29,-10.18 6.91,-6.79 10.43,-16.34 10.43,-28.78 0,-11.81 -3.52,-21.11 -10.43,-27.9 -6.91,-6.91 -17.34,-10.3 -31.29,-10.3l-47 0 0 77.16z"/>
  <polygon class="fil0" points="1870.66,2828.13 1870.66,2891.09 1972.2,2891.09 1972.2,2949.52 1870.66,2949.52 1870.66,3017.89 1985.52,3017.89 1985.52,3078.59 1794.88,3078.59 1794.88,2767.31 1985.52,2767.31 1985.52,2828.13 "/>
  <path class="fil0" d="M2025.8 2985.47l80.68 0c1.13,11.56 5.15,20.35 11.94,26.39 6.91,6.03 15.71,9.05 26.64,9.05 11.19,0 20.11,-2.52 26.52,-7.67 6.54,-5.15 9.8,-12.31 9.8,-21.49 0,-7.67 -2.64,-14.07 -7.79,-19.1 -5.15,-5.03 -11.44,-9.17 -18.98,-12.44 -7.54,-3.27 -18.22,-6.91 -32.17,-11.06 -20.11,-6.16 -36.57,-12.44 -49.26,-18.6 -12.69,-6.16 -23.63,-15.33 -32.8,-27.52 -9.17,-12.19 -13.7,-27.9 -13.7,-47.38 0,-29.03 10.43,-51.65 31.41,-68.11 20.99,-16.46 48.39,-24.63 82.06,-24.63 34.31,0 61.95,8.17 82.94,24.63 20.99,16.46 32.3,39.21 33.68,68.49l-81.94 0c-0.63,-10.05 -4.4,-17.97 -11.19,-23.63 -6.79,-5.78 -15.46,-8.67 -26.14,-8.67 -9.17,0 -16.46,2.39 -22.12,7.29 -5.66,4.9 -8.42,11.81 -8.42,20.99 0,10.05 4.78,17.84 14.2,23.5 9.43,5.65 24.26,11.69 44.24,18.22 20.11,6.79 36.44,13.32 49.01,19.48 12.57,6.16 23.37,15.2 32.55,27.02 9.17,11.81 13.82,27.02 13.82,45.74 0,17.72 -4.52,33.81 -13.57,48.26 -8.93,14.45 -21.99,26.02 -39.21,34.69 -17.22,8.55 -37.45,12.82 -60.7,12.82 -22.74,0 -43.23,-3.65 -61.2,-11.06 -17.97,-7.41 -32.43,-18.35 -43.23,-32.8 -10.81,-14.45 -16.46,-31.92 -17.09,-52.4z"/>
  <path class="fil0" d="M2451.01 2763.79c36.94,0 68.61,9.8 94.88,29.28 26.26,19.48 43.86,46.12 52.65,79.8l-83.31 0c-6.16,-12.94 -14.96,-22.87 -26.39,-29.66 -11.31,-6.78 -24.25,-10.18 -38.7,-10.18 -23.37,0 -42.35,8.17 -56.8,24.38 -14.45,16.21 -21.74,37.95 -21.74,65.1 0,27.27 7.29,49.01 21.74,65.22 14.45,16.21 33.43,24.38 56.8,24.38 14.45,0 27.4,-3.39 38.7,-10.18 11.44,-6.79 20.24,-16.71 26.39,-29.78l83.31 0c-8.8,33.68 -26.39,60.2 -52.65,79.67 -26.26,19.35 -57.93,29.03 -94.88,29.03 -30.16,0 -57.18,-6.66 -80.93,-20.11 -23.75,-13.44 -42.35,-32.17 -55.67,-56.17 -13.32,-24 -19.98,-51.27 -19.98,-82.06 0,-30.79 6.66,-58.19 19.98,-82.19 13.32,-24.13 31.92,-42.85 55.67,-56.3 23.75,-13.44 50.77,-20.23 80.93,-20.23z"/>
  <polygon class="fil0" points="2720.96,2828.13 2720.96,2891.09 2822.5,2891.09 2822.5,2949.52 2720.96,2949.52 2720.96,3017.89 2835.83,3017.89 2835.83,3078.59 2645.19,3078.59 2645.19,2767.31 2835.83,2767.31 2835.83,2828.13 "/>
  <polygon class="fil0" points="3163.39,3078.59 3087.61,3078.59 2960.81,2886.57 2960.81,3078.59 2885.03,3078.59 2885.03,2767.31 2960.81,2767.31 3087.61,2960.21 3087.61,2767.31 3163.39,2767.31 "/>
  <polygon class="fil0" points="3442.22,2767.31 3442.22,2828.13 3359.79,2828.13 3359.79,3078.59 3284.01,3078.59 3284.01,2828.13 3201.57,2828.13 3201.57,2767.31 "/>
  <path class="fil0" d="M1447.76 3317.5c0,30.41 -6.79,57.43 -20.23,81.19 -13.45,23.62 -32.43,41.97 -57.18,54.91 -24.63,12.94 -53.16,19.48 -85.7,19.48l-116.63 0 0 -311.28 116.63 0c32.8,0 61.45,6.54 85.96,19.6 24.5,12.94 43.48,31.29 56.93,54.79 13.44,23.5 20.23,50.52 20.23,81.31zm-77.16 0c0,-28.65 -8.04,-50.89 -24,-66.85 -15.96,-15.96 -38.2,-24 -66.85,-24l-35.94 0 0 180.84 35.94 0c28.65,0 50.89,-7.79 66.85,-23.5 15.96,-15.71 24,-37.83 24,-66.48z"/>
  <polygon class="fil0" points="1566.09,3222.63 1566.09,3285.59 1667.63,3285.59 1667.63,3344.02 1566.09,3344.02 1566.09,3412.39 1680.96,3412.39 1680.96,3473.08 1490.31,3473.08 1490.31,3161.8 1680.96,3161.8 1680.96,3222.63 "/>
  <polygon class="fil0" points="1805.93,3222.63 1805.93,3285.59 1907.47,3285.59 1907.47,3344.02 1805.93,3344.02 1805.93,3412.39 1920.8,3412.39 1920.8,3473.08 1730.15,3473.08 1730.15,3161.8 1920.8,3161.8 1920.8,3222.63 "/>
  <polygon class="fil0" points="2248.35,3473.08 2172.57,3473.08 2045.78,3281.06 2045.78,3473.08 1970,3473.08 1970,3161.8 2045.78,3161.8 2172.57,3354.7 2172.57,3161.8 2248.35,3161.8 "/>
  <path class="fil0" d="M1210.51 3653.7l-24.33 -44.18 -6.85 0 0 44.18 -28.49 0 0 -117.04 47.81 0c9.21,0 17.1,1.61 23.57,4.87 6.52,3.21 11.39,7.61 14.6,13.23 3.21,5.63 4.81,11.86 4.81,18.76 0,7.8 -2.17,14.74 -6.57,20.83 -4.39,6.1 -10.87,10.44 -19.42,13l27.02 46.35 -32.17 0zm-31.18 -64.35l17.67 0c5.25,0 9.17,-1.28 11.77,-3.83 2.6,-2.55 3.92,-6.14 3.92,-10.82 0,-4.44 -1.32,-7.94 -3.92,-10.49 -2.6,-2.6 -6.52,-3.87 -11.77,-3.87l-17.67 0 0 29.01z"/>
  <polygon class="fil0" points="1287.99,3559.54 1287.99,3583.2 1326.16,3583.2 1326.16,3605.18 1287.99,3605.18 1287.99,3630.88 1331.17,3630.88 1331.17,3653.7 1259.5,3653.7 1259.5,3536.67 1331.17,3536.67 1331.17,3559.54 "/>
  <path class="fil0" d="M1346.31 3618.69l30.33 0c0.43,4.35 1.94,7.65 4.49,9.92 2.6,2.27 5.9,3.4 10.01,3.4 4.2,0 7.56,-0.94 9.97,-2.88 2.46,-1.94 3.69,-4.63 3.69,-8.08 0,-2.88 -0.99,-5.29 -2.93,-7.18 -1.94,-1.89 -4.3,-3.45 -7.14,-4.68 -2.83,-1.23 -6.85,-2.6 -12.09,-4.16 -7.56,-2.31 -13.75,-4.68 -18.52,-6.99 -4.77,-2.32 -8.88,-5.77 -12.33,-10.35 -3.45,-4.58 -5.15,-10.49 -5.15,-17.81 0,-10.91 3.92,-19.42 11.81,-25.61 7.89,-6.19 18.19,-9.26 30.85,-9.26 12.9,0 23.29,3.07 31.18,9.26 7.89,6.19 12.14,14.74 12.66,25.75l-30.8 0c-0.24,-3.78 -1.65,-6.76 -4.2,-8.88 -2.56,-2.17 -5.81,-3.26 -9.83,-3.26 -3.44,0 -6.19,0.9 -8.31,2.74 -2.13,1.84 -3.17,4.44 -3.17,7.89 0,3.78 1.8,6.71 5.34,8.83 3.54,2.13 9.11,4.39 16.63,6.85 7.56,2.55 13.7,5.01 18.42,7.32 4.72,2.31 8.79,5.72 12.24,10.16 3.45,4.44 5.2,10.16 5.2,17.2 0,6.66 -1.7,12.71 -5.1,18.15 -3.35,5.43 -8.27,9.78 -14.74,13.04 -6.47,3.21 -14.07,4.82 -22.82,4.82 -8.55,0 -16.25,-1.37 -23,-4.16 -6.76,-2.79 -12.19,-6.9 -16.25,-12.33 -4.06,-5.44 -6.19,-12 -6.43,-19.7z"/>
  <path class="fil0" d="M1447.29 3594.87c0,-11.48 2.69,-21.73 8.07,-30.85 5.43,-9.12 12.71,-16.21 21.87,-21.31 9.17,-5.15 19.23,-7.7 30.24,-7.7 11.01,0 21.07,2.55 30.23,7.7 9.17,5.1 16.39,12.19 21.64,21.31 5.29,9.12 7.94,19.37 7.94,30.85 0,11.44 -2.65,21.74 -7.98,30.9 -5.34,9.17 -12.56,16.3 -21.69,21.45 -9.12,5.1 -19.13,7.65 -30.14,7.65 -11.01,0 -21.07,-2.55 -30.24,-7.65 -9.16,-5.15 -16.44,-12.28 -21.87,-21.45 -5.38,-9.17 -8.07,-19.46 -8.07,-30.9zm91.04 0c0,-10.35 -2.84,-18.57 -8.46,-24.76 -5.62,-6.19 -13.08,-9.26 -22.39,-9.26 -9.45,0 -16.96,3.07 -22.58,9.17 -5.62,6.09 -8.41,14.41 -8.41,24.85 0,10.35 2.79,18.57 8.41,24.76 5.62,6.14 13.13,9.21 22.58,9.21 9.31,0 16.77,-3.12 22.39,-9.31 5.62,-6.24 8.46,-14.46 8.46,-24.67z"/>
  <path class="fil0" d="M1611.11 3536.67l0 70.02c0,6.99 1.7,12.38 5.15,16.16 3.45,3.78 8.55,5.67 15.22,5.67 6.66,0 11.76,-1.89 15.3,-5.67 3.54,-3.78 5.34,-9.17 5.34,-16.16l0 -70.02 28.49 0 0 69.88c0,10.44 -2.22,19.28 -6.66,26.5 -4.44,7.23 -10.4,12.67 -17.91,16.35 -7.51,3.64 -15.87,5.48 -25.08,5.48 -9.22,0 -17.48,-1.8 -24.76,-5.43 -7.28,-3.64 -13.04,-9.07 -17.25,-16.35 -4.2,-7.28 -6.33,-16.11 -6.33,-26.55l0 -69.88 28.48 0z"/>
  <path class="fil0" d="M1760.31 3653.7l-24.33 -44.18 -6.85 0 0 44.18 -28.49 0 0 -117.04 47.81 0c9.21,0 17.1,1.61 23.57,4.87 6.52,3.21 11.39,7.61 14.6,13.23 3.21,5.63 4.82,11.86 4.82,18.76 0,7.8 -2.17,14.74 -6.57,20.83 -4.39,6.1 -10.87,10.44 -19.42,13l27.02 46.35 -32.17 0zm-31.18 -64.35l17.67 0c5.25,0 9.17,-1.28 11.77,-3.83 2.59,-2.55 3.92,-6.14 3.92,-10.82 0,-4.44 -1.32,-7.94 -3.92,-10.49 -2.6,-2.6 -6.52,-3.87 -11.77,-3.87l-17.67 0 0 29.01z"/>
  <path class="fil0" d="M1863.3 3535.34c13.89,0 25.79,3.69 35.67,11.01 9.87,7.32 16.48,17.34 19.79,30l-31.32 0c-2.31,-4.87 -5.62,-8.6 -9.92,-11.15 -4.25,-2.55 -9.12,-3.83 -14.55,-3.83 -8.79,0 -15.93,3.07 -21.36,9.17 -5.43,6.09 -8.17,14.27 -8.17,24.47 0,10.26 2.74,18.43 8.17,24.52 5.43,6.09 12.57,9.17 21.36,9.17 5.43,0 10.3,-1.28 14.55,-3.83 4.3,-2.55 7.61,-6.28 9.92,-11.2l31.32 0c-3.31,12.66 -9.92,22.63 -19.79,29.96 -9.87,7.28 -21.78,10.91 -35.67,10.91 -11.34,0 -21.5,-2.5 -30.43,-7.56 -8.93,-5.06 -15.93,-12.09 -20.93,-21.12 -5.01,-9.02 -7.51,-19.28 -7.51,-30.85 0,-11.57 2.5,-21.87 7.51,-30.9 5,-9.07 12,-16.11 20.93,-21.17 8.93,-5.06 19.08,-7.61 30.43,-7.61z"/>
  <polygon class="fil0" points="1964.78,3559.54 1964.78,3583.2 2002.95,3583.2 2002.95,3605.18 1964.78,3605.18 1964.78,3630.88 2007.96,3630.88 2007.96,3653.7 1936.3,3653.7 1936.3,3536.67 2007.96,3536.67 2007.96,3559.54 "/>
  <g style="clip-path:url(#id1)">
   <image x="284.72" y="201.66" width="3443.33" height="3590" xlink:href="CRESCENT DEEN copy_Images\CRESCENT DEEN copy_ImgID2.png"/>
  </g>
  <path class="fil0" d="M2023.1 3618.69l30.33 0c0.43,4.35 1.94,7.65 4.49,9.92 2.6,2.27 5.9,3.4 10.01,3.4 4.2,0 7.56,-0.94 9.97,-2.88 2.46,-1.94 3.69,-4.63 3.69,-8.08 0,-2.88 -0.99,-5.29 -2.93,-7.18 -1.94,-1.89 -4.3,-3.45 -7.14,-4.68 -2.83,-1.23 -6.85,-2.6 -12.09,-4.16 -7.56,-2.31 -13.75,-4.68 -18.52,-6.99 -4.77,-2.32 -8.88,-5.77 -12.33,-10.35 -3.45,-4.58 -5.15,-10.49 -5.15,-17.81 0,-10.91 3.92,-19.42 11.81,-25.61 7.89,-6.19 18.19,-9.26 30.85,-9.26 12.9,0 23.29,3.07 31.18,9.26 7.89,6.19 12.14,14.74 12.66,25.75l-30.8 0c-0.24,-3.78 -1.65,-6.76 -4.2,-8.88 -2.56,-2.17 -5.81,-3.26 -9.83,-3.26 -3.44,0 -6.19,0.9 -8.31,2.74 -2.13,1.84 -3.17,4.44 -3.17,7.89 0,3.78 1.8,6.71 5.34,8.83 3.54,2.13 9.11,4.39 16.63,6.85 7.56,2.55 13.7,5.01 18.42,7.32 4.72,2.31 8.79,5.72 12.24,10.16 3.45,4.44 5.2,10.16 5.2,17.2 0,6.66 -1.7,12.71 -5.1,18.15 -3.35,5.43 -8.27,9.78 -14.74,13.04 -6.47,3.21 -14.07,4.82 -22.82,4.82 -8.55,0 -16.25,-1.37 -23,-4.16 -6.76,-2.79 -12.19,-6.9 -16.25,-12.33 -4.06,-5.44 -6.19,-12 -6.43,-19.7z"/>
  <g style="clip-path:url(#id2)">
   <image x="284.72" y="201.66" width="3443.33" height="3590" xlink:href="CRESCENT DEEN copy_Images\CRESCENT DEEN copy_ImgID3.png"/>
  </g>
  <g style="clip-path:url(#id3)">
   <image x="284.72" y="201.66" width="3443.33" height="3590" xlink:href="CRESCENT DEEN copy_Images\CRESCENT DEEN copy_ImgID4.png"/>
  </g>
 </g>
</svg>
